<svg id="Layer_1" data-name="Layer 1" xmlns="http://www.w3.org/2000/svg" xmlns:xlink="http://www.w3.org/1999/xlink" viewBox="0 0 1215.18 702.43">
  <defs>
    <style>
      .cls-1, .cls-2 {
        fill: #fff;
      }

      .cls-2 {
        opacity: 0;
      }
    </style>
  </defs>
  <image width="7680" height="4320" transform="translate(0 32.74) scale(0.16)" xlink:href="G:%5COffice%20work%5CRaihana%20Park%5CAL%20HUR%20PERSPECTIVES%20FOR%20BILLBOARDS%2022-06-2022%5C16-12-2023%5C4.jpg"/>
  <path class="cls-1" d="M458.7,172.2s96.87,123.59,259.64,229.29c17.86,11.6,37,26.88,59,40.91,50.51,32.22,109.47,65.32,155.67,85.47,33.27,14.51,69.46,33.86,98.21,43.15,20.78,6.72,40.82,17.44,60.26,25.28,24.65,9.94,47.7,16.5,63.06,18.38,20.56,2.52,32.2-4.69,36-10,1.65-2.27,0-5.1,0-5.1l24.63-460.16H458.7Z" transform="translate(0 -139.46)"/>
  <rect class="cls-2" x="140.68" y="338.37" width="57.7" height="243.57"/>
  <polygon class="cls-2" points="205.87 286.96 205.87 323.05 249.11 324.41 425.45 150.54 387.32 112.66 205.87 286.96"/>
  <polygon class="cls-2" points="212.68 550.28 210.13 601.35 858.64 604.92 854.55 550.28 212.68 550.28"/>
  <polygon class="cls-2" points="417.45 206.62 607.91 375.64 861.7 518.62 883.66 476.24 643.15 339.39 445.02 171.54 417.45 206.62"/>
  <polygon class="cls-2" points="95.23 61.6 87.57 196.41 231.06 191.81 322.47 121.86 383.18 47.31 95.23 61.6"/>
  <path class="cls-2" d="M242.13,533.66l-2,14L244.85,558l12.43,11.4,2.89,2.05,3.06,5.95,2.39,7.66-3.07,7.66-7.49,9.19-7.32,7.32-2,8.86s-.34,9.53-.34,10.38,9.87,8.85,9.87,9.36S267,642.26,267,642.26l13.79-3.58L292,623.53s7-10.21,7.32-11.57.68-6,2.38-6.13,8.17-.85,8.85-.85h19.92l8.51-2s3.57-4.26,5.45-6.47,4.42-5.79,4.42-6.3a9.63,9.63,0,0,1,0-6.13c1.19-3.23-3.4-15.49-3.4-15.49s-12.43-5.44-12.94-5.44-9.36-1.2-9.36-1.2l-20.77,3.24-7.81-1.7-7.68-8-2.38-24.85L276,524.47l-11.91-5.11-13.62,5.11Z" transform="translate(0 -139.46)"/>
  <path class="cls-2" d="M298.47,461.66s-3.55,5.62-3.9,6.13-2.4,11.06-2.4,11.06l5.28,11.06,11.23,8h9.53l4.26-2.72,4.08.17,3.92,3.41,14.3,3.23h20.42l10.55-8.34,8.35-7.66,4.59-11.91,3.75-14.64-4.26-17.54,3.57-10.72L385.62,413l-13.11-7-15.15,1.53-10.72,10.38-3.24,12.26-2.89,1.19-2.38-.51-5.79-7.49L315.66,437l7,5.62,2,2,3.06,1.87-7,4.94s-10.22,2.38-10.9,2.55-6,1.7-6.3,2.21-4.42,4.26-4.42,4.26Z" transform="translate(0 -139.46)"/>
  <polygon class="cls-2" points="513.19 387.64 510.38 394.28 509.36 404.24 513.19 414.71 526.21 426.45 539.23 425.43 549.19 421.86 554.3 414.2 559.15 402.71 559.15 390.71 552.77 383.56 545.87 381.26 534.25 376.15 521.36 379.9 513.19 387.64"/>
  <path class="cls-2" d="M481.79,616.21v14l5.36,7.14,11,7.41s6.64,2.3,8.17,2,8.17-2.81,8.17-2.81L526,636.38l5.87-12.76V620l-1-10.47-4.09-8.42-8.93-3.32s-6.64-4.09-7.41-4.09-18.12,2.81-18.12,2.81l-8.43,12.51Z" transform="translate(0 -139.46)"/>
  <path class="cls-2" d="M364.09,513.06l40.85-26,22.46-5.36s33.2,10.21,33.71,12.25,19.91,12.23,20.68,13.14S492,523.53,492,524.55s-3.32,17.88-3.32,18.9,3.32,17.36,3.32,19.4a37.15,37.15,0,0,1-1.53,13.28,58.38,58.38,0,0,1-6.38,14.81c-2.56,4.08-19.15,18.38-19.41,19.15s-45.45,6.12-45.45,6.12l-22-7.91-7.66-3.07S374,588.38,373.28,588.38s-11.75-16.59-11.75-16.59-5.62-16.6-5.1-20.17S364.09,513.06,364.09,513.06Z" transform="translate(0 -139.46)"/>
  <path class="cls-2" d="M895.57,623.87,861.87,646l19.41,32-2.56,14.3L850.3,707.62,870,744.38l31-18.72,3.07,10.55,19.74-6.12,4.77,22.8,25.87-11.57,8.85-3.06-20.09-37.11,8.17-11.41s13.62-3.91,15.66-5.61,7.15-3.07,9.54-6.47,3.4-3.06,2.72-4.77-10.55-9.53-10.55-11.57-.68-7.49-2.73-10.21S962,639.53,962,639.53l-5.11-.68s-2.72-1.7-9.53,2.38-10.21,7.15-13.62,9.54.68-2-3.4,2.38-4.43-4.43-4.43-4.43-5.1-2-8.17-3.74,3.07-1.7-3.06-1.7-3.41-.68-6.13,0S895.57,623.87,895.57,623.87Z" transform="translate(0 -139.46)"/>
  <polygon class="cls-2" points="99.32 353.18 137.62 353.18 126.89 604.92 92.68 598.28 82.98 601.86 99.32 353.18"/>
</svg>
